<?xml version="1.0" encoding="utf-8"?>
<svg xmlns="http://www.w3.org/2000/svg" height="582.69" width="526">
  <g fill="none" stroke="#34499d" stroke-miterlimit="10" stroke-width="3">
    <path d="M239.11 225.1 199.98 99.39M291.07 225.1l31.34-131.17M311.95 247.33l89.8-74.82M334.5 291.05h88.67M187.87 291.99H86.35M210.21 337.7l-86.54 70.31M237.19 361.99l-34.97 131.56M291.07 358.88l39.7 131.11M313.54 336.26l92.49 72.31M211.78 247.77l-90.54-85.08"/>
  </g>
  <g data-name="WordPress Logo">
    <g data-name="WordPress Big Logo Background">
      <animateTransform attributeName="transform" attributeType="XML" dur="60s" from="0 262.19 291.345" repeatCount="indefinite" to="-360 262.19 291.345" type="rotate"/>
      <path d="M263 27.77c-145 0-263 118-263 263s118 263 263 263 263-118 263-263-118-263-263-263Zm-236.46 263A235.57 235.57 0 0 1 47 194.53l112.79 309A236.48 236.48 0 0 1 26.54 290.76ZM263 527.24a236.41 236.41 0 0 1-66.8-9.64l70.95-206.15 72.68 199.12a21.77 21.77 0 0 0 1.69 3.26A236.05 236.05 0 0 1 263 527.24Zm32.59-347.34c14.23-.75 27.06-2.25 27.06-2.25 12.74-1.51 11.24-20.23-1.51-19.49 0 0-38.3 3-63 3-23.24 0-62.28-3-62.28-3-12.75-.74-14.25 18.74-1.5 19.49 0 0 12.06 1.5 24.8 2.25L256 280.84 204.23 436l-86.11-256.1c14.25-.75 27.06-2.25 27.06-2.25 12.74-1.51 11.23-20.23-1.51-19.49 0 0-38.29 3-63 3-4.44 0-9.67-.11-15.22-.29a236.4 236.4 0 0 1 357.24-44.49c-1-.06-2-.19-3.06-.19-23.23 0-39.71 20.23-39.71 42 0 19.49 11.25 36 23.23 55.46 9 15.75 19.49 36 19.49 65.22 0 20.23-7.78 43.72-18 76.44L381 434.08Zm174.9-2.58a236.51 236.51 0 0 1-88.61 317.83l72.22-208.82c13.49-33.73 18-60.71 18-84.69a180.84 180.84 0 0 0-1.61-24.32Z" fill="#464342" opacity=".04"/>
    </g>
    <g data-name="WordPress Logo Outer Hexagon">
      <animateTransform attributeName="transform" attributeType="XML" dur="10s" from="0 262.19 291.345" repeatCount="indefinite" to="360 262.19 291.345" type="rotate"/>
      <path d="M307.16 202.21h-88.32a12.07 12.07 0 0 0-10.45 6l-44.16 76.48a12.07 12.07 0 0 0 0 12.08l44.16 76.48a12.05 12.05 0 0 0 10.45 6h88.32a12.05 12.05 0 0 0 10.45-6l44.16-76.48a12.07 12.07 0 0 0 0-12.08l-44.16-76.48a12.07 12.07 0 0 0-10.45-6Z" data-name="Outer Hexagon" fill="#eff0ea" stroke="#f05264" stroke-miterlimit="10"/>
    </g>
    <path d="M303 209.49h-79.9a12.06 12.06 0 0 0-10.46 6l-40 69.2a12.12 12.12 0 0 0 0 12.08l40 69.2a12.06 12.06 0 0 0 10.46 6H303a12.06 12.06 0 0 0 10.46-6l40-69.2a12.12 12.12 0 0 0 0-12.08l-40-69.2a12.06 12.06 0 0 0-10.46-6Z" data-name="Inner Hexagon" fill="#eff0ea" stroke="#335a71" stroke-miterlimit="10" stroke-width="3"/>
    <path d="M263 234.55a56.22 56.22 0 1 0 56.22 56.22A56.28 56.28 0 0 0 263 234.55Zm-50.54 56.22a50.43 50.43 0 0 1 4.37-20.57l24.11 66.06a50.54 50.54 0 0 1-28.48-45.49ZM263 341.32a50.61 50.61 0 0 1-14.28-2.06l15.17-44.07 15.53 42.56a5.12 5.12 0 0 0 .36.7 50.37 50.37 0 0 1-16.78 2.87Zm7-74.25c3-.16 5.78-.48 5.78-.48a2.09 2.09 0 0 0-.32-4.16s-8.19.64-13.47.64c-5 0-13.32-.64-13.32-.64-2.72-.16-3 4-.32 4.16 0 0 2.58.32 5.31.48l7.87 21.58-11.06 33.17L232 267.07c3.05-.16 5.79-.48 5.79-.48a2.09 2.09 0 0 0-.33-4.16s-8.18.64-13.47.64c-1 0-2.06 0-3.25-.06a50.53 50.53 0 0 1 76.36-9.51h-.65c-5 0-8.49 4.32-8.49 9 0 4.16 2.4 7.69 5 11.85 1.93 3.37 4.17 7.69 4.17 13.94 0 4.33-1.66 9.35-3.85 16.34l-5 16.84Zm37.38-.55a50.56 50.56 0 0 1-18.94 67.94l15.44-44.64a47.75 47.75 0 0 0 3.84-18.1 38.38 38.38 0 0 0-.37-5.2Z" fill="#464342" opacity=".85"/>
  </g>
  <g data-name="HTML Logo">
    <path d="M219.28.84h-47.91a12.05 12.05 0 0 0-10.45 6L137 48.37a12.1 12.1 0 0 0 0 12.07l24 41.49a12.07 12.07 0 0 0 10.45 6h47.91a12.1 12.1 0 0 0 10.46-6l23.95-41.49a12.05 12.05 0 0 0 0-12.07L229.74 6.88A12.08 12.08 0 0 0 219.28.84Z" data-name="Outer Hexagon" fill="#eff0ea" stroke="#f05264" stroke-miterlimit="10"/>
    <path d="M216.12 6.31h-41.59a12.09 12.09 0 0 0-10.46 6l-20.8 36a12.1 12.1 0 0 0 0 12.07l20.8 36a12.08 12.08 0 0 0 10.46 6h41.59a12.06 12.06 0 0 0 10.46-6l20.8-36a12.05 12.05 0 0 0 0-12.07l-20.8-36a12.07 12.07 0 0 0-10.46-6Z" data-name="Inner Hexagon" fill="#eff0ea" stroke="#335a71" stroke-miterlimit="10" stroke-width="3"/>
    <path d="m175.9 82.55-4.33-48.5h47.51l-4.33 48.49-19.45 5.39-19.4-5.38z" fill="#e44f26"/>
    <path d="m195.33 83.81 15.72-4.36 3.7-41.43h-19.42v45.79z" fill="#f1672a"/>
    <path d="M195.33 56h-7.87l-.55-6.09h8.42v-5.94h-14.92l.15 1.59 1.46 16.39h13.31V56zM195.33 71.45l-.03.01-6.62-1.79-.43-4.75H182.28l.84 9.34 12.18 3.39.03-.01v-6.19z" fill="#ebebeb"/>
    <path d="M176 20.87h3v3h2.76v-3h3v9.05h-3v-3H179v3h-3v-9ZM188.78 23.87h-2.66v-3h8.34v3h-2.66v6.05h-3v-6.05ZM195.79 20.87h3.15l1.94 3.18 1.93-3.18H206v9.05h-3v-4.49l-2.08 3.22-2.09-3.22v4.49h-3ZM207.47 20.87h3v6.06h4.25v3h-7.27Z" fill="#010101"/>
    <path d="M195.31 56v5.95h7.32l-.69 7.72-6.63 1.78v6.19l12.19-3.38.09-1 1.4-15.66.14-1.6h-13.82zM195.31 43.97V49.91h14.36l.12-1.33.27-3.02.15-1.59h-14.9z" fill="#fff"/>
  </g>
  <g data-name="SCSS Logo">
    <path d="M354.67.5h-47.81a12.08 12.08 0 0 0-10.46 6l-23.9 41.4a12.07 12.07 0 0 0 0 12.08l23.9 41.41a12.09 12.09 0 0 0 10.46 6h47.81a12.08 12.08 0 0 0 10.46-6L389 60a12.12 12.12 0 0 0 0-12.08L365.13 6.54A12.07 12.07 0 0 0 354.67.5Z" data-name="Outer Hexagon" fill="#eff0ea" stroke="#f05264" stroke-miterlimit="10"/>
    <path d="M351.52 6H310a12.09 12.09 0 0 0-10.46 6L278.8 47.94a12.07 12.07 0 0 0 0 12.08L299.55 96a12.08 12.08 0 0 0 10.45 6h41.51A12.07 12.07 0 0 0 362 96l20.74-36a12.12 12.12 0 0 0 0-12.08L362 12a12.08 12.08 0 0 0-10.48-6Z" data-name="Inner Hexagon" fill="#eff0ea" stroke="#335a71" stroke-miterlimit="10" stroke-width="3"/>
    <path d="M360.2 58.09a15.12 15.12 0 0 0-6.64 1.54 14 14 0 0 1-1.49-3.44 9.36 9.36 0 0 1-.13-2.89 26.42 26.42 0 0 1 .87-3.11c0-.13-.16-.76-1.64-.77s-2.74.28-2.89.67a14.78 14.78 0 0 0-.61 2.19c-.26 1.34-2.95 6.11-4.48 8.61a8.9 8.9 0 0 1-1-2.51 9.39 9.39 0 0 1-.13-2.89 26.18 26.18 0 0 1 .87-3.12c0-.13-.16-.76-1.64-.77s-2.74.29-2.89.68-.31 1.3-.61 2.18-3.89 8.85-4.79 10.92c-.47 1.05-.89 1.9-1.18 2.47v.1c-.25.5-.4.77-.4.77-.2.36-.41.69-.52.69a4.66 4.66 0 0 1 0-2.28c.53-2.76 1.81-7.07 1.79-7.22s.24-.83-.83-1.22a1.32 1.32 0 0 0-1.51.26c-.09 0-.16.22-.16.22s1.16-4.85-2.22-4.85c-2.11 0-5 2.31-6.48 4.41l-4.92 2.69-2.37 1.3-.16-.17c-4.09-4.37-11.66-7.46-11.34-13.33.12-2.14.86-7.76 14.55-14.58 11.21-5.59 20.19-4 21.74-.65 2.21 4.87-4.8 13.92-16.44 15.23-4.44.49-6.78-1.23-7.36-1.87s-.7-.7-.93-.58-.14.81 0 1.16a6.88 6.88 0 0 0 4.21 3.31c2.14.7 7.35 1.09 13.65-1.35 7.05-2.73 12.56-10.32 10.94-16.67s-12.34-8.57-22.47-5c-6 2.14-12.56 5.5-17.25 9.89-5.58 5.21-6.47 9.76-6.1 11.65 1.3 6.75 10.6 11.14 14.32 14.39l-.51.28c-1.87.93-8.95 4.63-10.73 8.55-2 4.44.32 7.63 1.87 8.06 4.78 1.33 9.68-1.06 12.32-5s2.31-9 1.1-11.39a.56.56 0 0 1-.05-.08l1.46-.86c.95-.56 1.88-1.08 2.69-1.52a18.15 18.15 0 0 0-1 4.87c-.21 2.52.83 5.79 2.18 7.07a2.43 2.43 0 0 0 1.77.58c1.57 0 2.29-1.31 3.08-2.86 1-1.9 1.83-4.11 1.83-4.11s-1.08 6 1.86 6c1.07 0 2.15-1.39 2.63-2.1l.08-.14.17-.27c.43-.74 1.39-2.45 2.82-5.26 1.85-3.64 3.63-8.19 3.63-8.19a23.65 23.65 0 0 0 .7 2.95 28.11 28.11 0 0 0 1.54 3.42c-.43.6-.69.94-.69.94-.35.45-.73 1-1.14 1.42a41 41 0 0 0-3.43 4.31 1.17 1.17 0 0 0 .32 1.57 2.89 2.89 0 0 0 1.8.29 8.17 8.17 0 0 0 2.69-.61 9.15 9.15 0 0 0 2.32-1.22 5.13 5.13 0 0 0 2.21-4.56 9 9 0 0 0-.84-3.22l.39-.57a61.29 61.29 0 0 0 4-6.94 23.51 23.51 0 0 0 .7 3 20.64 20.64 0 0 0 1.31 2.94 12.67 12.67 0 0 0-3.91 5.05c-.84 2.44-.18 3.54 1.06 3.79a3.79 3.79 0 0 0 2-.39 9.19 9.19 0 0 0 2.48-1.28c1.43-1.05 2.81-2.53 2.72-4.52a8.35 8.35 0 0 0-.61-2.68 14 14 0 0 1 7.1-.82c6.38.74 7.63 4.72 7.39 6.39a4.18 4.18 0 0 1-2 2.85c-.44.28-.58.38-.54.58s.26.29.64.23a5 5 0 0 0 3.47-4.43c.12-3.93-3.62-8.22-10.24-8.18Zm-49.14 16.56C309 77 306 77.83 304.74 77.09s-.83-4.18 1.76-6.62a34.08 34.08 0 0 1 5-3.71l1.31-.79.14-.08.33-.2a9.15 9.15 0 0 1-2.22 8.96Zm15.38-10.45c-.73 1.79-2.27 6.38-3.21 6.13s-1.29-3.7-.16-7.13a15.72 15.72 0 0 1 2.51-4.59c1.15-1.29 2.42-1.71 2.73-1.19s-1.4 5.65-1.87 6.78Zm12.71 6.06c-.31.16-.59.27-.73.19s.13-.28.13-.28 1.59-1.71 2.22-2.48l1.24-1.6a1.09 1.09 0 0 1 0 .18c-.01 2.05-2.01 3.43-2.86 3.99Zm9.79-2.26c-.23-.17-.19-.7.57-2.37a9.11 9.11 0 0 1 2.18-2.81 4.11 4.11 0 0 1 .22 1.24 4 4 0 0 1-2.97 3.94Z" fill="#cd6799"/>
  </g>
  <g data-name="NPM Logo">
    <path d="M219.28 475.07h-47.91a12.05 12.05 0 0 0-10.45 6l-24 41.48a12.12 12.12 0 0 0 0 12.08l24 41.48a12.05 12.05 0 0 0 10.45 6h47.91a12.08 12.08 0 0 0 10.46-6l23.95-41.48a12.07 12.07 0 0 0 0-12.08l-23.95-41.48a12.08 12.08 0 0 0-10.46-6Z" data-name="Outer Hexagon" fill="#eff0ea" stroke="#f05264" stroke-miterlimit="10"/>
    <path d="M216.12 480.53h-41.59a12.08 12.08 0 0 0-10.46 6l-20.8 36a12.12 12.12 0 0 0 0 12.08l20.8 36a12.08 12.08 0 0 0 10.46 6h41.59a12.06 12.06 0 0 0 10.46-6l20.8-36a12.07 12.07 0 0 0 0-12.08l-20.8-36a12.06 12.06 0 0 0-10.46-6Z" data-name="Inner Hexagon" fill="#eff0ea" stroke="#335a71" stroke-miterlimit="10" stroke-width="3"/>
    <path d="M153.47 514.35h83.72v27.91h-41.86v4.65h-18.61v-4.65h-23.25Zm4.65 23.26h9.3v-14h4.65v14h4.65V519h-18.6ZM181.37 519v23.26h9.31v-4.65H200V519Zm9.31 4.65h4.65V533h-4.65Zm13.95-4.65v18.61h9.3v-14h4.65v14h4.65v-14h4.65v14h4.65V519Z" fill="#cc3937"/>
    <path d="M158.12 537.61h9.3v-13.96h4.65v13.96h4.65V519h-18.6v18.61zM181.37 519v23.26h9.31v-4.65H200V519Zm14 14h-4.65v-9.31h4.65ZM204.63 519v18.61h9.3v-13.96h4.65v13.96h4.65v-13.96h4.65v13.96h4.65V519h-27.9z" fill="#fff"/>
  </g>
  <g data-name="JS Logo">
    <path d="M457.79 103.93H410a12.05 12.05 0 0 0-10.45 6l-23.91 41.41a12.05 12.05 0 0 0 0 12.07l23.91 41.41a12.05 12.05 0 0 0 10.45 6h47.82a12.05 12.05 0 0 0 10.45-6l23.91-41.41a12.05 12.05 0 0 0 0-12.07L468.24 110a12.05 12.05 0 0 0-10.45-6.07Z" data-name="Outer Hexagon" fill="#eff0ea" stroke="#f05264" stroke-miterlimit="10"/>
    <path d="M454.64 109.39h-41.52a12.05 12.05 0 0 0-10.45 6l-20.76 35.95a12.05 12.05 0 0 0 0 12.07l20.76 36a12.05 12.05 0 0 0 10.45 6h41.52a12.05 12.05 0 0 0 10.45-6l20.76-36a12.05 12.05 0 0 0 0-12.07l-20.76-35.95a12.05 12.05 0 0 0-10.45-6Z" data-name="Inner Hexagon" fill="#eff0ea" stroke="#335a71" stroke-miterlimit="10" stroke-width="3"/>
    <rect fill="#f6df19" height="59.53" rx="11.44" width="59.53" x="404.11" y="127.65"/>
    <path d="M442.14 175.3a2.6 2.6 0 0 1 3.18.47 5.61 5.61 0 0 0 4.3 1.79c2.32 0 3.8-1.16 3.8-2.76 0-1.92-1.52-2.6-4.07-3.72l-1.4-.6c-4-1.72-6.72-3.87-6.72-8.43 0-4.19 3.2-7.39 8.2-7.39a8.62 8.62 0 0 1 5.82 1.85 2.58 2.58 0 0 1-.25 4.16 2.57 2.57 0 0 1-3.13-.26 3.42 3.42 0 0 0-2.44-.87 2.44 2.44 0 0 0-2.68 2.4c0 1.68 1 2.36 3.44 3.4l1.4.6c4.75 2 7.43 4.11 7.43 8.79 0 5-3.95 7.79-9.27 7.79a11.37 11.37 0 0 1-8.3-3.1 2.58 2.58 0 0 1 .56-4Zm-19.9.62a2.52 2.52 0 0 1 3.22.44 3.06 3.06 0 0 0 2.48 1.16c1.84 0 3-.72 3-3.51v-16.45a2.59 2.59 0 0 1 2.58-2.58h.48a2.58 2.58 0 0 1 2.58 2.58v16.52c0 5.79-3.39 8.43-8.35 8.43a9 9 0 0 1-6.55-2.47 2.58 2.58 0 0 1 .48-4Z" fill="#333431"/>
  </g>
  <g data-name="SEO Logo">
    <path d="M354.67 474.73h-47.81a12.09 12.09 0 0 0-10.46 6l-23.9 41.41a12.07 12.07 0 0 0 0 12.08l23.9 41.4a12.08 12.08 0 0 0 10.46 6h47.81a12.07 12.07 0 0 0 10.46-6L389 534.25a12.12 12.12 0 0 0 0-12.08l-23.91-41.41a12.08 12.08 0 0 0-10.42-6.03Z" data-name="Outer Hexagon" fill="#eff0ea" stroke="#f05264" stroke-miterlimit="10"/>
    <path d="M351.52 480.18H310a12.08 12.08 0 0 0-10.46 6l-20.74 35.99a12.07 12.07 0 0 0 0 12.08l20.75 36a12.09 12.09 0 0 0 10.46 6h41.51a12.08 12.08 0 0 0 10.46-6l20.76-36a12.12 12.12 0 0 0 0-12.08L362 486.22a12.07 12.07 0 0 0-10.48-6.04Z" data-name="Inner Hexagon" fill="#eff0ea" stroke="#335a71" stroke-miterlimit="10" stroke-width="3"/>
    <path d="M291.11 530h4.77a13.86 13.86 0 0 0 .78 2.24 4.47 4.47 0 0 0 3.06 2.45 8 8 0 0 0 4.4-.15 3.79 3.79 0 0 0 1.93-1.41 2.62 2.62 0 0 0-1-4.14 21.69 21.69 0 0 0-4.18-1.27 27.59 27.59 0 0 1-4.62-1.47 7.08 7.08 0 0 1-4.49-6.88 6.93 6.93 0 0 1 5.37-6.37 14.36 14.36 0 0 1 9.61.45 7.16 7.16 0 0 1 4.37 6.8 27.93 27.93 0 0 1-5.13 0c-.19-.16-.15-.39-.21-.59a3.45 3.45 0 0 0-2.2-2.52 7.16 7.16 0 0 0-5.38.22 2 2 0 0 0-1.36 1.93 2.1 2.1 0 0 0 1.34 2 24.42 24.42 0 0 0 4.94 1.55 24.92 24.92 0 0 1 4.38 1.43 7.27 7.27 0 0 1 4.44 7.42 7.6 7.6 0 0 1-5.1 6.86 15.69 15.69 0 0 1-10 .12 8.2 8.2 0 0 1-5.72-8.67Z" fill="#567ebf"/>
    <path d="M362 518.62c2.94 5 2.69 10-.35 15.14l2 1.73-1.86 1.85-1.79-1.89c-5.44 5.3-14.6 4.77-19.27-.74a13.4 13.4 0 0 1 1-18.87 13.22 13.22 0 0 1 18.48.66c-1 1.18-2.05 2.33-3.17 3.41a8.6 8.6 0 0 0-10.47-1.54 8.89 8.89 0 0 0-4 9.86 5.45 5.45 0 0 0 1.1 2.71 8.7 8.7 0 0 0 10.45 3.31 8.94 8.94 0 0 0 4.47-12.07c1.11-1.18 2.22-2.42 3.41-3.56Z" fill="#f7bc16"/>
    <path d="M334.7 512.75v4.37h-13.24V523h12.3v4.5h-12.3v7.13h13.7V539l-.18.1H317.5c-.07-.08-.13-.08-.2 0h-.61l-.2-.06-.06-.2V513c.23-.33.65-.09.92-.31h17.15Z" fill="#e94435"/>
    <path d="M362 518.62a58.579 58.579 0 0 0-3.31 3.56l-6.21 6.57-3.85-3-4.86 5.15a5.45 5.45 0 0 1-1.1-2.71l5.71-6 3.85 3 4.89-5.34c1.12-1.08 2.16-2.23 3.17-3.41l2-1.88-1.61-1.36 5.43-1-.61 5.45-1.5-1.32Z" fill="#37a853"/>
    <path d="m361.77 537.34 1.86-1.85a1.82 1.82 0 0 1 1.8.64c1.39 1.43 2.82 2.83 4.23 4.25 1.06 1.06 1.07 1.61 0 2.64-1.56 1.57-1.84 1.57-3.39 0-1.28-1.28-2.54-2.57-3.84-3.83a1.94 1.94 0 0 1-.66-1.85Z" fill="#567ebf"/>
    <path d="M317.33 512.64c-.27.22-.69 0-.92.31.1-.7.59-.23.92-.31ZM334.7 512.75l-.2-.11c.11-.03.17 0 .2.11ZM316.41 538.87l.06.2a.13.13 0 0 1-.06-.2ZM316.49 539.09l.2.06a.14.14 0 0 1-.2-.06ZM317.3 539.14c.07-.07.13-.07.2 0ZM335 539.14l.18-.1c-.04.11-.1.14-.18.1Z" fill="#ec8b7f"/>
  </g>
  <g data-name="PHP Logo">
    <path d="M85.1 237.73H37.29a12.08 12.08 0 0 0-10.46 6l-23.9 41.45a12.05 12.05 0 0 0 0 12.07l23.9 41.41a12.1 12.1 0 0 0 10.46 6H85.1a12.09 12.09 0 0 0 10.46-6l23.91-41.41a12.1 12.1 0 0 0 0-12.07l-23.91-41.41a12.07 12.07 0 0 0-10.46-6.04Z" data-name="Outer Hexagon" fill="#eff0ea" stroke="#f05264" stroke-miterlimit="10"/>
    <path d="M82 243.19H40.44a12.08 12.08 0 0 0-10.46 6l-20.75 36a12.05 12.05 0 0 0 0 12.07L30 333.2a12.08 12.08 0 0 0 10.46 6H82a12.07 12.07 0 0 0 10.46-6l20.76-35.95a12.1 12.1 0 0 0 0-12.07l-20.76-36A12.07 12.07 0 0 0 82 243.19Z" data-name="Inner Hexagon" fill="#eff0ea" stroke="#335a71" stroke-miterlimit="10" stroke-width="3"/>
    <g fill="#505c94">
      <path d="M28.49 280.82H40c3.38 0 5.83.92 7.35 2.69s2 4.17 1.51 7.23a13 13 0 0 1-1.34 4.11 12.24 12.24 0 0 1-2.75 3.64 9.68 9.68 0 0 1-4.6 2.6 22.9 22.9 0 0 1-5.07.56H30l-1.64 7.51h-6l6.15-28.34m5 4.51-2.58 11.85a3.12 3.12 0 0 0 .52 0h.6a24.24 24.24 0 0 0 6.88-.75c1.84-.55 3.07-2.48 3.7-5.77q.78-4.15-1.55-4.78a20.8 20.8 0 0 0-5.72-.59h-1.9M55.68 273.27h5.94l-1.68 7.55h5.33c2.93.05 5.11.61 6.54 1.66s1.89 3.06 1.29 6l-2.88 13.16h-6L67 289.08a3.3 3.3 0 0 0-.26-2.81c-.46-.55-1.44-.83-3-.83h-4.78l-3.52 16.25h-5.95l6.19-28.38M79.47 280.82H91c3.38 0 5.83.92 7.35 2.69s2 4.17 1.5 7.23a12.92 12.92 0 0 1-1.33 4.11 12.24 12.24 0 0 1-2.75 3.64 9.68 9.68 0 0 1-4.6 2.6 23 23 0 0 1-5.08.56h-5.16l-1.63 7.51h-6l6.15-28.34m5 4.51-2.58 11.85a3.12 3.12 0 0 0 .52 0H83a24.24 24.24 0 0 0 6.88-.75c1.84-.55 3.07-2.48 3.7-5.77q.78-4.15-1.55-4.78a20.8 20.8 0 0 0-5.72-.59h-1.9"/>
    </g>
  </g>
  <g data-name="Cloudflare Logo">
    <path d="M488.71 237.73H440.9a12.07 12.07 0 0 0-10.46 6l-23.91 41.41a12.1 12.1 0 0 0 0 12.07l23.91 41.41a12.09 12.09 0 0 0 10.46 6h47.81a12.1 12.1 0 0 0 10.46-6l23.9-41.41a12.05 12.05 0 0 0 0-12.07l-23.9-41.41a12.08 12.08 0 0 0-10.46-6Z" data-name="Outer Hexagon" fill="#eff0ea" stroke="#f05264" stroke-miterlimit="10"/>
    <path d="M485.56 243.19h-41.51a12.07 12.07 0 0 0-10.46 6l-20.76 36a12.1 12.1 0 0 0 0 12.07l20.76 35.95a12.07 12.07 0 0 0 10.46 6h41.51a12.08 12.08 0 0 0 10.46-6l20.75-35.95a12.05 12.05 0 0 0 0-12.07l-20.75-36a12.08 12.08 0 0 0-10.46-6Z" data-name="Inner Hexagon" fill="#eff0ea" stroke="#335a71" stroke-miterlimit="10" stroke-width="3"/>
    <path d="m479.36 304.73.41-1.41a5 5 0 0 0-.51-4.37 4.44 4.44 0 0 0-3.52-1.73l-28.74-.37a.57.57 0 0 1-.55-.57.65.65 0 0 1 0-.19.76.76 0 0 1 .67-.51l29-.38a10.37 10.37 0 0 0 8.47-6.36l1.66-4.32a1 1 0 0 0 .06-.38 1.36 1.36 0 0 0 0-.2A18.89 18.89 0 0 0 450 282a8.5 8.5 0 0 0-13.31 8.91A12.07 12.07 0 0 0 425 303.27a14.58 14.58 0 0 0 .13 1.47.57.57 0 0 0 .55.49h53.06a.69.69 0 0 0 .62-.5Z" fill="#f48020"/>
    <path d="M488.94 284.85h-.92a.46.46 0 0 0-.29.3l-1.14 3.91a5 5 0 0 0 .51 4.36 4.4 4.4 0 0 0 3.51 1.74l6.13.38a.55.55 0 0 1 .43.24.57.57 0 0 1 .07.52.76.76 0 0 1-.67.51l-6.36.38a10.38 10.38 0 0 0-8.49 6.35l-.46 1.2a.36.36 0 0 0 .2.45H503.48a.6.6 0 0 0 .59-.45 15.72 15.72 0 0 0-15.12-20Z" fill="#f9ab40"/>
  </g>
  <g data-name="MySQL Logo">
    <path d="M114.59 104.93H66.78a12.08 12.08 0 0 0-10.46 6l-23.9 41.41a12.05 12.05 0 0 0 0 12.07l23.9 41.41a12.08 12.08 0 0 0 10.46 6h47.81a12.07 12.07 0 0 0 10.46-6L149 164.45a12.1 12.1 0 0 0 0-12.07L125.05 111a12.07 12.07 0 0 0-10.46-6.07Z" data-name="Outer Hexagon" fill="#eff0ea" stroke="#f05264" stroke-miterlimit="10"/>
    <path d="M111.44 110.39H69.93a12.08 12.08 0 0 0-10.46 6l-20.75 35.99a12.05 12.05 0 0 0 0 12.07l20.75 36a12.08 12.08 0 0 0 10.46 6h41.51a12.07 12.07 0 0 0 10.46-6l20.76-36a12.1 12.1 0 0 0 0-12.07l-20.76-35.95a12.07 12.07 0 0 0-10.46-6.04Z" data-name="Inner Hexagon" fill="#eff0ea" stroke="#335a71" stroke-miterlimit="10" stroke-width="3"/>
    <path d="M106 124.9a3.67 3.67 0 0 0-1 .12 9.68 9.68 0 0 0 .74 1c.19.37.35.74.53 1.11h.05a1.29 1.29 0 0 0 .49-1.16 4.76 4.76 0 0 1-.28-.49c-.14-.23-.44-.34-.63-.53" fill="#687e91" fill-rule="evenodd"/>
    <path d="M69.1 170.63h-3.21q-.17-8.13-.94-15.28L60 170.63h-2.4l-4.86-15.28q-.54 6.87-.68 15.28H49.1q.28-10.23 1.42-19.17h4l4.63 14.08 4.66-14.08h3.8q1.26 10.47 1.48 19.17M83 156.48q-2 10.64-5.17 15.46-2.5 3.72-5.48 3.72a5.28 5.28 0 0 1-2-.48v-1.71a8.63 8.63 0 0 0 1.33.08 3.2 3.2 0 0 0 2.24-.76 2.8 2.8 0 0 0 1-2.1 14 14 0 0 0-.8-3.27l-3.52-10.94h3.15l2.53 8.18a11.14 11.14 0 0 1 .71 3.9A53.67 53.67 0 0 0 80 156.48Z" fill="#037690"/>
    <path d="M125.73 170.63h-9.11v-19.17h3.07v16.81h6.04v2.36z" fill="#f29220"/>
    <path d="m114.23 171.09-3.52-1.74a6.4 6.4 0 0 0 .88-.85c1.49-1.76 2.24-4.37 2.24-7.81q0-9.52-7.47-9.52a7.09 7.09 0 0 0-5.71 2.42q-2.24 2.64-2.24 7.78t2 7.41a6.81 6.81 0 0 0 5.48 2.13 9 9 0 0 0 2.51-.33l4.59 2.67Zm-11.42-4.3c-.77-1.25-1.16-3.25-1.16-6q0-7.25 4.4-7.24a3.71 3.71 0 0 1 3.38 1.73q1.17 1.88 1.17 6c0 4.86-1.47 7.3-4.41 7.3a3.69 3.69 0 0 1-3.38-1.74" fill="#f29220" fill-rule="evenodd"/>
    <path d="M97.07 165.31a5.06 5.06 0 0 1-1.79 4 7 7 0 0 1-4.79 1.56 9.63 9.63 0 0 1-5.49-1.78l.83-1.65a9.28 9.28 0 0 0 4.17 1.14 4.33 4.33 0 0 0 2.72-.77 2.6 2.6 0 0 0 1-2.12c0-1.14-.79-2.12-2.25-2.93s-4-2.28-4-2.28a4.58 4.58 0 0 1-2.19-4.08 4.75 4.75 0 0 1 1.63-3.76 6.16 6.16 0 0 1 4.22-1.44 8.72 8.72 0 0 1 4.87 1.42l-.74 1.65a9.41 9.41 0 0 0-3.69-.8 3.28 3.28 0 0 0-2.27.71 2.37 2.37 0 0 0-.86 1.82c0 1.14.81 2.12 2.3 2.95s4.12 2.31 4.12 2.31a4.52 4.52 0 0 1 2.24 4.05" fill="#f29220"/>
    <path d="M129.58 145a10.79 10.79 0 0 0-4.49.65c-.35.14-.9.14-1 .58.19.19.21.49.37.74a5.46 5.46 0 0 0 1.2 1.42c.49.37 1 .74 1.49 1.06.9.56 1.92.88 2.8 1.44.51.32 1 .74 1.53 1.09.25.18.42.48.74.6v-.07c-.16-.21-.21-.51-.37-.74l-.7-.67a10.87 10.87 0 0 0-2.4-2.34c-.75-.51-2.37-1.21-2.67-2.06a9.65 9.65 0 0 0 1.59-.37c.79-.21 1.51-.16 2.32-.37l1.11-.33v-.21c-.42-.41-.72-1-1.16-1.36a29.86 29.86 0 0 0-3.82-2.85 25.45 25.45 0 0 0-2.41-1.16c-.27-.14-.74-.21-.9-.44a9.18 9.18 0 0 1-.95-1.78c-.67-1.28-1.32-2.69-1.9-4a26.15 26.15 0 0 0-1.18-2.64 23.4 23.4 0 0 0-9-8.66 10.71 10.71 0 0 0-3-1c-.58 0-1.16-.07-1.74-.09a10.72 10.72 0 0 1-1.07-.81c-1.32-.84-4.72-2.64-5.69-.26-.63 1.51.92 3 1.46 3.76a11.24 11.24 0 0 1 1.18 1.73c.16.4.21.81.37 1.23a28.83 28.83 0 0 0 1.2 3.1 11 11 0 0 0 .86 1.44c.19.26.51.37.58.79a6.56 6.56 0 0 0-.53 1.74 10.18 10.18 0 0 0 .67 7.78c.37.58 1.25 1.85 2.43 1.37s.81-1.74 1.11-2.9c.07-.28 0-.46.16-.65v.05c.33.65.65 1.27 1 1.92a12.9 12.9 0 0 0 3 3.1c.55.42 1 1.14 1.69 1.4v-.07h-.05a2.63 2.63 0 0 0-.53-.47 10.57 10.57 0 0 1-1.21-1.39 29.3 29.3 0 0 1-2.59-4.21c-.37-.72-.7-1.51-1-2.23-.14-.27-.14-.69-.37-.83a8.52 8.52 0 0 0-1.11 1.57 13 13 0 0 0-.65 3.5h-.09c-.74-.19-1-.95-1.28-1.6a10 10 0 0 1-.2-6.19c.16-.48.85-2 .57-2.47s-.6-.7-.85-1a9.4 9.4 0 0 1-.84-1.48c-.55-1.3-.83-2.73-1.43-4a12.62 12.62 0 0 0-1.16-1.78 12 12 0 0 1-1.28-1.81c-.11-.26-.27-.67-.09-1a.36.36 0 0 1 .33-.3c.3-.26 1.15.07 1.46.21a12 12 0 0 1 2.29 1.15c.32.24.67.68 1.09.79h.53c.75.16 1.58.05 2.28.26a14.65 14.65 0 0 1 3.33 1.6 20.53 20.53 0 0 1 7.23 7.92c.28.53.39 1 .65 1.57.48 1.14 1.09 2.3 1.57 3.41a15 15 0 0 0 1.65 3.1c.34.49 1.74.74 2.36 1a16.21 16.21 0 0 1 1.6.65c.79.48 1.57 1 2.32 1.57.37.28 1.52.86 1.59 1.32" fill="#037690" fill-rule="evenodd"/>
    <path d="M131.79 170.63h.48v-2.35h-.72l-.59 1.6-.64-1.6h-.69v2.35h.45v-1.79l.67 1.79h.34l.67-1.79Zm-3.87 0h.51v-1.95h.67v-.4h-1.87v.4h.69Z" fill="#f29220"/>
  </g>
  <g data-name="Gutenberg Logo">
    <path d="M458.46 368.2h-47.82a12.07 12.07 0 0 0-10.45 6l-23.91 41.41a12.07 12.07 0 0 0 0 12.08l23.91 41.4a12.05 12.05 0 0 0 10.45 6h47.82a12.05 12.05 0 0 0 10.45-6l23.91-41.4a12.07 12.07 0 0 0 0-12.08l-23.91-41.41a12.07 12.07 0 0 0-10.45-6Z" data-name="Outer Hexagon" fill="#eff0ea" stroke="#f05264" stroke-miterlimit="10"/>
    <path d="M455.31 373.65h-41.52a12.05 12.05 0 0 0-10.45 6l-20.76 35.95a12.07 12.07 0 0 0 0 12.08l20.76 35.95a12.07 12.07 0 0 0 10.45 6h41.52a12.07 12.07 0 0 0 10.45-6l20.76-35.95a12.07 12.07 0 0 0 0-12.08l-20.76-35.95a12.05 12.05 0 0 0-10.45-6Z" data-name="Inner Hexagon" fill="#eff0ea" stroke="#335a71" stroke-miterlimit="10" stroke-width="3"/>
    <g fill="#1a1718" opacity=".8">
      <path d="M441.63 419.81a.53.53 0 0 0-.74.15 4.18 4.18 0 0 1-3.14 1.54h-.05a4 4 0 0 0-3.55 2.25.54.54 0 0 0 .27.71.59.59 0 0 0 .22.05.54.54 0 0 0 .49-.32 2.9 2.9 0 0 1 2.39-1.61v2.77a2 2 0 0 1-.85 1.43 3.59 3.59 0 0 1-2.07.55 3.17 3.17 0 0 1-2.47-1.05 4.29 4.29 0 0 1-.95-3v-3.06a4.1 4.1 0 0 1 .94-2.66 3.18 3.18 0 0 1 2.47-1 3.59 3.59 0 0 1 2.07.55 2 2 0 0 1 .86 1.51v.07a.68.68 0 0 0 1.36 0v-.07a3.12 3.12 0 0 0-1.34-2.31 4.89 4.89 0 0 0-3-.87 4.51 4.51 0 0 0-3.44 1.41 5 5 0 0 0-1.31 3.43v3.05a5.22 5.22 0 0 0 1.32 3.74 4.51 4.51 0 0 0 3.44 1.41 4.89 4.89 0 0 0 3-.87 3.17 3.17 0 0 0 1.31-2.09v-3.08a4.71 4.71 0 0 0 2.87-1.86.5.5 0 0 0-.1-.77ZM451.08 388.26h7.53a.61.61 0 1 0 0-1.21h-7.53a.61.61 0 0 0 0 1.21ZM410.76 388.26h7.53a.61.61 0 1 0 0-1.21h-7.53a.61.61 0 0 0 0 1.21Z"/>
      <circle cx="458.99" cy="393.76" r=".61"/>
      <circle cx="434.51" cy="391.84" r=".61"/>
      <path d="M423.23 393.77c2.28 0 3.3-1.43 4.08-2.77a5.11 5.11 0 0 1 2.53-2.3 3.43 3.43 0 0 1 4.09 1.79.61.61 0 0 0 .53.35h.07a.6.6 0 0 0 .53-.35 3.43 3.43 0 0 1 4.09-1.79 5.11 5.11 0 0 1 2.53 2.3c.78 1.34 1.8 2.77 4.11 2.77a3.75 3.75 0 0 0 3.51-3 3.34 3.34 0 0 0-1.87-3.9.6.6 0 0 0-.81.27.61.61 0 0 0 .27.82 2.13 2.13 0 0 1 1.22 2.53 2.6 2.6 0 0 1-2.33 2.1c-1.52 0-2.24-.76-3.06-2.17a6.23 6.23 0 0 0-3.23-2.85 4.69 4.69 0 0 0-5 1.55 4.68 4.68 0 0 0-5-1.55 6.22 6.22 0 0 0-3.24 2.85c-.82 1.41-1.54 2.17-3 2.17a2.45 2.45 0 0 1-1.07-4.65.61.61 0 0 0-.63-1 3.66 3.66 0 0 0 1.69 6.9Z"/>
      <circle cx="409.81" cy="393.76" r=".61"/>
      <circle cx="408.11" cy="387.66" r=".61"/>
      <circle cx="461.15" cy="387.66" r=".61"/>
      <circle cx="464.41" cy="426.65" r=".61"/>
      <circle cx="461.97" cy="440.56" r=".61"/>
      <circle cx="458.06" cy="442.3" r=".61"/>
      <path d="M422 389.94a1.64 1.64 0 1 0 1.64-1.64 1.65 1.65 0 0 0-1.64 1.64Zm1.64-.43a.44.44 0 0 1 .43.43.43.43 0 0 1-.43.43.43.43 0 0 1-.43-.43.43.43 0 0 1 .39-.43ZM445.68 391.58a1.64 1.64 0 1 0-1.64-1.64 1.65 1.65 0 0 0 1.64 1.64Zm0-2.07a.44.44 0 0 1 .43.43.43.43 0 0 1-.43.43.43.43 0 0 1-.43-.43.43.43 0 0 1 .43-.43ZM436.17 391a.61.61 0 0 0 .42 1.14c.1 0 2.45-.82 4.26 2a.61.61 0 0 0 .51.28.53.53 0 0 0 .32-.1.6.6 0 0 0 .19-.84c-1.87-2.97-4.55-2.94-5.7-2.48ZM432.89 391a4.37 4.37 0 0 0-2-.15 5.32 5.32 0 0 0-3.7 2.62.6.6 0 0 0 .19.84.55.55 0 0 0 .32.1.61.61 0 0 0 .51-.28c1.8-2.8 4.15-2 4.26-2a.6.6 0 0 0 .77-.36.61.61 0 0 0-.35-.77ZM460.81 392.62l2.95-3.36v4.84a.61.61 0 0 0 1.22 0v-6.44a.6.6 0 0 0-.39-.56.62.62 0 0 0-.67.16l-4 4.56a.6.6 0 1 0 .9.8ZM404.78 394.72a.62.62 0 0 0 .61-.61v-4.84l2.95 3.36a.61.61 0 0 0 .85.06.61.61 0 0 0 .06-.86l-4-4.57a.62.62 0 0 0-.67-.16.6.6 0 0 0-.39.56v6.45a.61.61 0 0 0 .59.61ZM447.62 395.32a.6.6 0 0 0-.62.45.61.61 0 0 0 .33.7 6.1 6.1 0 0 0 2.62.62 5.54 5.54 0 0 0 3.53-1.34 8.61 8.61 0 0 0 2-2.54.6.6 0 0 0-.24-.79c-.61-.36-1.68-.59-3.31.41a8.78 8.78 0 0 0-1.55 1.2 4.37 4.37 0 0 1-2.76 1.29Zm3.62-.38a5.44 5.44 0 0 1 2.79-1.58 7.85 7.85 0 0 1-1.34 1.49 4.25 4.25 0 0 1-2.82 1.06 7.36 7.36 0 0 0 1.37-.97ZM414.06 392.42a.61.61 0 0 0-.23.79 8.42 8.42 0 0 0 2.05 2.54 5.5 5.5 0 0 0 3.53 1.34 6.07 6.07 0 0 0 2.62-.62.61.61 0 0 0 .32-.7.59.59 0 0 0-.61-.46 4.34 4.34 0 0 1-2.8-1.28 9.71 9.71 0 0 0-1.55-1.2c-1.63-.99-2.71-.76-3.33-.41Zm4.06 2.52a7.56 7.56 0 0 0 1.35.94 5.2 5.2 0 0 1-4.16-2.55 5.41 5.41 0 0 1 2.78 1.58Z"/>
      <path d="M465.13 444.24a5 5 0 0 0-1.9-1 3.79 3.79 0 0 0 .66-.61 4.64 4.64 0 0 0 0-6.05.6.6 0 0 0-.9.8 3.44 3.44 0 0 1 0 4.47 5.15 5.15 0 0 1-3.13 1.37c-1.54.17-3.27.52-4.2 2.63a3 3 0 0 0-.26 1.08 2.2 2.2 0 0 0-.68-.11 2.23 2.23 0 0 0-2.23 2.23 2.2 2.2 0 0 0 1.17 1.95 4.34 4.34 0 0 0-.58.63 11.15 11.15 0 0 0-10.53-4.41 27.42 27.42 0 0 0 8.29-4.22 27.4 27.4 0 0 0 7.85-9.22 26 26 0 0 0 2.95-12.08v-.08a24.69 24.69 0 0 0-1.87-9.22 5.75 5.75 0 0 0 1.13.11 4.38 4.38 0 0 0 3.78-1.95 3.83 3.83 0 0 0 .32-3.05.37.37 0 0 0 0-.11v-11.07a.61.61 0 1 0-1.22 0v9.29a5 5 0 0 0-3.14-1c-1.2 0-1.94-.18-2.49-1.12a1.72 1.72 0 0 1 .26-2.09 1.75 1.75 0 0 1 2.21-.22.63.63 0 0 0 .83-.24.6.6 0 0 0-.24-.82 3 3 0 0 0-3.66.43 2.92 2.92 0 0 0-.45 3.54 3.58 3.58 0 0 0 3.5 1.72h.05a3.81 3.81 0 0 1 2.39.74 2.76 2.76 0 0 1 .57 3.34c0 .09-1.22 2.07-4.48 1a30.29 30.29 0 0 0-3.18-5.26l-.48.36.48-.37-.19-.26c-2.09-3.5.32-7.23 1.58-8.81l.7-.8a.6.6 0 0 0-.04-.76.61.61 0 0 0-.82 0l-.3.32c-1.08 1.11-5.34 5-9.47 3l-.12-.08h-.06a27.91 27.91 0 0 0-10.83-3.43c-.46-1-1.05-1.82-1.81-1.82s-1.36.8-1.82 1.85c-4.88.21-11 3.36-11.2 3.49-4.15 2.09-8.43-1.85-9.52-3l-.29-.32a.61.61 0 0 0-.89.83l.76.85a13 13 0 0 1 1.47 2.3 6.45 6.45 0 0 1 .07 6.46 26 26 0 0 0-3.42 5.51c-3.28 1.07-4.46-.93-4.51-1a2.74 2.74 0 0 1 .57-3.34 3.79 3.79 0 0 1 2.38-.74 3.63 3.63 0 0 0 3.55-1.72 2.93 2.93 0 0 0-.45-3.54 3 3 0 0 0-3.66-.43.59.59 0 0 0-.24.82.6.6 0 0 0 .82.24 1.74 1.74 0 0 1 2.48 2.31c-.54.93-1.28 1.12-2.46 1.12a5.38 5.38 0 0 0-2.79.73v-8.86a.61.61 0 0 0-1.22 0v10.2a3.87 3.87 0 0 0 0 3.84 3.77 3.77 0 0 0 1.43 1.36 4.67 4.67 0 0 0 2.35.59 6.29 6.29 0 0 0 1.23-.13 26.7 26.7 0 0 0-1.61 9.25v.07a26.51 26.51 0 0 0 6 16.67 27.53 27.53 0 0 0 13.17 8.86 11.2 11.2 0 0 0-10.57 4.33 3.47 3.47 0 0 0-.56-.59 2.23 2.23 0 0 0-1.78-4 3.43 3.43 0 0 0-.26-1.07c-.94-2.11-2.66-2.46-4.2-2.63a5.15 5.15 0 0 1-3.13-1.37 3.37 3.37 0 0 1-.07-4.44.6.6 0 0 0-.9-.8 4.66 4.66 0 0 0 0 6 3.44 3.44 0 0 0 .66.61 5.13 5.13 0 0 0-1.9 1c-1.44 1.19-2.17 3.17-2.19 5.87a.6.6 0 0 0 .59.73h.27a.62.62 0 0 0 .24-.24 4.64 4.64 0 0 1 2-.85c3.15-.69 3.8-2.82 3.71-3.84a.61.61 0 0 0-.66-.55.61.61 0 0 0-.55.66 1.76 1.76 0 0 1-.05.45c-.15.61-.69 1.66-2.71 2.1a8.6 8.6 0 0 0-1.6.52 5.47 5.47 0 0 1 1.69-3.81 4.5 4.5 0 0 1 3.41-.87h.19a7 7 0 0 0 .81.13c1.61.18 2.61.53 3.22 1.91a2.6 2.6 0 0 1-1 3 2.14 2.14 0 0 1-2.81-.08.61.61 0 0 0-.86.08.61.61 0 0 0 .08.85 3.53 3.53 0 0 0 1.87.82 7.11 7.11 0 0 0-1.67 2c-.83 1.42-1.49 2.18-2.6 2.19V451a.61.61 0 1 0-1.22 0v4.92a.61.61 0 0 0 .35.55.66.66 0 0 0 .38.14H419a.62.62 0 0 0 .51-.28.61.61 0 0 0 .17-.29 4.91 4.91 0 0 1 9.29-.65h-1.3a3.51 3.51 0 0 0-6.64.41.61.61 0 0 0 1.17.33 2.3 2.3 0 0 1 4.09-.74H426a.61.61 0 0 0 0 1.22h3.81a.62.62 0 0 0 .61-.61.28.28 0 0 0 0-.09.7.7 0 0 0 0-.25 6.12 6.12 0 0 0-11.74-.27h-3.17a10.24 10.24 0 0 1 1-2.28l.07-.11a10 10 0 0 1 8.42-4.62 9.88 9.88 0 0 1 5.72 1.8.51.51 0 0 0 .15.07c.26.3.51.63.76 1 .06.08.1.16.16.24-.06 1.24.62 2.55 2 3.88.05.15.1.28.13.38v.12a.61.61 0 0 0 .61.61.6.6 0 0 0 .58-.45s.09-.3.26-.8a5.15 5.15 0 0 0 1.89-3.61l.25-.36c.28-.37.56-.74.86-1.08a9.85 9.85 0 0 1 5.66-1.76 10 10 0 0 1 9.52 7h-3.17a6.12 6.12 0 0 0-11.74.27.48.48 0 0 0 0 .29.62.62 0 0 0 .61.61h5.32a.61.61 0 0 0 0-1.22h-1.93a2.28 2.28 0 0 1 1.87-1 2.31 2.31 0 0 1 2.23 1.73.6.6 0 0 0 .59.45h.14a.6.6 0 0 0 .44-.74 3.51 3.51 0 0 0-6.65-.46h-1.22a4.9 4.9 0 0 1 9.28.65.94.94 0 0 0 .06.15.61.61 0 0 0 .58.42h14.39a.62.62 0 0 0 .65-.57v-.2a1 1 0 0 0 0-.17V451a.61.61 0 1 0-1.22 0v4.12c-1-.08-1.66-.84-2.44-2.19a8 8 0 0 0-1.57-1.92 3.5 3.5 0 0 0 1.54-.77.61.61 0 0 0 .08-.85.61.61 0 0 0-.86-.08 2.14 2.14 0 0 1-2.81.08 2.61 2.61 0 0 1-1-3c.61-1.38 1.61-1.74 3.23-1.91a7.18 7.18 0 0 0 .8-.13h.2a4.53 4.53 0 0 1 3.4.87 5.4 5.4 0 0 1 1.7 3.82 8.58 8.58 0 0 0-1.61-.53c-2-.44-2.56-1.48-2.71-2.09a1.32 1.32 0 0 1 0-.45.61.61 0 0 0-.55-.66.6.6 0 0 0-.65.55c-.1 1 .55 3.15 3.71 3.84a4.5 4.5 0 0 1 2 .88.44.44 0 0 0 .08.11.47.47 0 0 0 .09.06h.59V450.54a.43.43 0 0 1 0-.05v-.07c.33-2.96-.41-4.97-1.87-6.18Zm-50.92 11.1h-6.39a8.59 8.59 0 0 0 1.22-1.72 5 5 0 0 1 2.53-2.29 3.17 3.17 0 0 1 3.77 1.32 11.61 11.61 0 0 0-1.13 2.69Zm.17-5.27a1 1 0 1 1 1-1 1 1 0 0 1-1 1Zm36-7.66.09.11Zm0-.61a15.63 15.63 0 0 0-12.35 4 20.56 20.56 0 0 0-2.55 2.74 2 2 0 0 0-.32-.2v-1.73c4.64-4.66 9.25-6.06 12.31-6.4a15.9 15.9 0 0 1 4.65.15 20.47 20.47 0 0 1-1.75 1.44Zm7.19-8.56a27.86 27.86 0 0 1-2 3.25 14.44 14.44 0 0 0-2.92-.58 23 23 0 0 0 4.78-11.38 7.38 7.38 0 0 0 2.91-1 24.74 24.74 0 0 1-2.78 9.71Zm-4.13-10.95h.71a2.91 2.91 0 0 0 2.07 2.18 21.74 21.74 0 0 1-5.09 11.4 22.39 22.39 0 0 0-4.67.54 18.87 18.87 0 0 0 6.97-14.12ZM441.9 437.8c-.39.15-.67.28-.8.34a17.69 17.69 0 0 1-5.21 1.21l16.28-16.28a17.7 17.7 0 0 1-10.27 14.73Zm18.48-16.16c0 .54-1.52 1.44-2.85 1.65a3.51 3.51 0 0 1-.55 0 1.9 1.9 0 0 1-.67-.13 1.75 1.75 0 0 1-1.05-1.58 1.73 1.73 0 0 1 1.72-1.72 3.51 3.51 0 0 1 .55 0c1.33.21 2.82 1.11 2.85 1.65Zm-5.68-15.53.25.35a26.24 26.24 0 0 1 5.34 13.3 7.33 7.33 0 0 0-2.88-1 22.94 22.94 0 0 0-6.1-12.91 2.16 2.16 0 0 0-.15-2.16l2.79-3.18a7.07 7.07 0 0 0 .75 5.6Zm-8.14-6.88.13.09h.07a6.8 6.8 0 0 0 3.09.74 8.45 8.45 0 0 0 3.52-.83l-3.14 3.58a2.23 2.23 0 0 0-.94-.2 2.27 2.27 0 0 0-1.19.34 22.87 22.87 0 0 0-10.73-4.25 21.21 21.21 0 0 0-.59-2.74 27.49 27.49 0 0 1 9.78 3.27Zm3.75 5.65a1 1 0 0 1-.7 1 1.06 1.06 0 0 1-.31.05h-.1a1 1 0 0 1-.89-.82 1.24 1.24 0 0 1 0-.18 1.36 1.36 0 0 1 0-.2 1 1 0 0 1 .92-.82h.13a1 1 0 0 1 .93.79 1 1 0 0 1 0 .17s.02-.01.02.01ZM437.42 400a21.74 21.74 0 0 1 9.88 3.93 2.14 2.14 0 0 0-.23 1 2.21 2.21 0 0 0 .35 1.19l-4.88 5.58a.61.61 0 0 0 .46 1 .62.62 0 0 0 .46-.21l4.88-5.56a2.23 2.23 0 0 0 1 .22 2.18 2.18 0 0 0 1.21-.36 21.87 21.87 0 0 1 5.7 12.07 2.92 2.92 0 0 0-2.08 2.24h-.7a18.8 18.8 0 0 0-4.95-12.1.6.6 0 1 0-.89.81 17.63 17.63 0 0 1 4.56 10.56l-6.52-6.51a.61.61 0 0 0-.86.86l7 7L434.55 439l-17.27-17.27 7-6.94a.61.61 0 0 0-.86-.86l-6.44 6.45a17.61 17.61 0 0 1 5.39-11.4l3.05 3.47a.57.57 0 0 0 .46.21.64.64 0 0 0 .4-.15.61.61 0 0 0 .06-.85l-3.05-3.49a17.56 17.56 0 0 1 10-4.06l-5.29 5.12a.62.62 0 0 0 0 .86.66.66 0 0 0 .44.17.67.67 0 0 0 .43-.17l5.69-5.64 5.54 5.55a.61.61 0 0 0 .86-.86l-5-5a17.66 17.66 0 0 1 8.66 3 .61.61 0 0 0 .84-.15.62.62 0 0 0-.15-.85 18.77 18.77 0 0 0-10.09-3.3v-.43a3 3 0 0 0 2.2-2.41Zm-17.74 7.29a2.18 2.18 0 0 0 1-.22l.87 1a18.91 18.91 0 0 0-5.85 13h-.49a3 3 0 0 0-2.28-2.29 21.76 21.76 0 0 1 5.55-11.86 2.29 2.29 0 0 0 1.2.35Zm-1-2.22a.66.66 0 0 1 0-.14v-.07a1 1 0 0 1 .92-.8h.06a1 1 0 0 1 1 .75 1.17 1.17 0 0 1 0 .26 1.49 1.49 0 0 1 0 .21 1 1 0 0 1-.92.79h-.08a1.1 1.1 0 0 1-.36-.07 1 1 0 0 1-.63-.95Zm-3.51 17.21h.5a18.88 18.88 0 0 0 7 14.11 22.72 22.72 0 0 0-4.69-.56 21.77 21.77 0 0 1-5.08-11.35 2.92 2.92 0 0 0 2.26-2.22Zm1.76.81 16.28 16.28a17.71 17.71 0 0 1-16.29-16.3Zm16-24.44c.27-1.83 1.17-4.28 1.64-4.48.54.21 1.37 2.75 1.63 4.47a6.73 6.73 0 0 1 .08.92 1.45 1.45 0 0 1 0 .3 1.72 1.72 0 0 1-3.38 0 1.53 1.53 0 0 1 0-.3 8.44 8.44 0 0 1-.02-.93Zm1.06 3.78v.42a18.86 18.86 0 0 0-11.52 4.41l-.86-1a2.26 2.26 0 0 0 .36-1.21 2.37 2.37 0 0 0-.25-1 21.74 21.74 0 0 1 10-4 2.86 2.86 0 0 0 2.22 2.36Zm-15-2.31a6.87 6.87 0 0 0 3.1-.74c.06 0 5.66-2.94 10.19-3.34a19.35 19.35 0 0 0-.58 2.73 22.87 22.87 0 0 0-10.87 4.38 2.12 2.12 0 0 0-1.12-.31 2.17 2.17 0 0 0-.95.22l-3.29-3.76a8.58 8.58 0 0 0 3.53.8Zm-4.9 6.07.05-.07a7.19 7.19 0 0 0 .77-5.63l2.94 3.37a2.15 2.15 0 0 0-.36 1.2 2.28 2.28 0 0 0 .19.91 23 23 0 0 0-6 12.8 8.19 8.19 0 0 0-2.91 1.07 23.57 23.57 0 0 1 5.29-13.67Zm-5.35 15.45c0-.57 1.6-1.36 2.85-1.61a3.55 3.55 0 0 1 .75-.09 1.53 1.53 0 0 1 .47.07 1.71 1.71 0 0 1 0 3.29 1.84 1.84 0 0 1-.47.07 3.4 3.4 0 0 1-.75-.09c-1.25-.26-2.83-1.05-2.85-1.61Zm.06 1.8a8.1 8.1 0 0 0 2.91 1.08 22.92 22.92 0 0 0 4.78 11.4 14.76 14.76 0 0 0-2.93.57 24.91 24.91 0 0 1-4.79-13.07Zm5.64 14.19-.09-.11a17.67 17.67 0 0 1 8.45.16 26.85 26.85 0 0 1 4.75 1.62 19 19 0 0 0 14 0h.06l.76-.33a26.23 26.23 0 0 1 3.93-1.26 17.51 17.51 0 0 1 8.47-.16c-.51.63-1 1.23-1.6 1.81a16 16 0 0 0-5.76-.36 21.42 21.42 0 0 0-12.25 5.93v-1.13a.61.61 0 0 0-1.22 0v1a21.4 21.4 0 0 0-12.17-5.87 15.81 15.81 0 0 0-5.81.38c-.54-.52-1.06-1.1-1.55-1.7Zm2.58 2.73a15.49 15.49 0 0 1 4.71-.16 21 21 0 0 1 12.24 6.33v1.78a2.59 2.59 0 0 0-.29.18 20.78 20.78 0 0 0-2.52-2.69 15.59 15.59 0 0 0-12.39-4c-.64-.45-1.22-.94-1.77-1.46Zm15.2 9.64a15.23 15.23 0 0 0-3.66-3.41h-.08a14.69 14.69 0 0 0-5.88-2.21 25.06 25.06 0 0 1-2.34-1.37 14.16 14.16 0 0 1 10 3.75 17.83 17.83 0 0 1 2.44 2.61 3.9 3.9 0 0 0-.48.63Zm2.94 3.68c-.15.18-.31.36-.48.53l-.14.13-.07-.07a6.77 6.77 0 0 1-.52-.56 3.1 3.1 0 0 1-.92-2.37 1.16 1.16 0 0 1 0-.18 2.24 2.24 0 0 1 .4-.82 3.38 3.38 0 0 1 .48-.51c.15-.13.3-.24.42-.33l.16-.09.23.14.39.31a3 3 0 0 1 .5.55 2.16 2.16 0 0 1 .38.86.19.19 0 0 0 0 .07 3.05 3.05 0 0 1-.83 2.29Zm2.39-4.42-.05.06c-.22.25-.43.51-.61.75a4.52 4.52 0 0 0-.5-.69 18.34 18.34 0 0 1 2.48-2.66 14.18 14.18 0 0 1 10-3.76 25.47 25.47 0 0 1-2.36 1.38 14.65 14.65 0 0 0-8.96 4.87Zm17.13-1.16a1 1 0 1 1-1 1 1 1 0 0 1 1-1.05Zm3.06 3.15a5.16 5.16 0 0 1 2.53 2.3 7.3 7.3 0 0 0 1.35 1.84h-6.78a11.23 11.23 0 0 0-1.08-2.6 3.46 3.46 0 0 1 3.98-1.59Z"/>
      <path d="M406 408.57a1.81 1.81 0 1 0 1.81-1.8 1.81 1.81 0 0 0-1.81 1.8Zm2.4 0a.59.59 0 1 1-.59-.58.59.59 0 0 1 .62.58ZM462.86 408.57a1.81 1.81 0 1 0-1.81 1.81 1.81 1.81 0 0 0 1.81-1.81Zm-2.39 0a.59.59 0 1 1 .58.59.57.57 0 0 1-.58-.59ZM464.6 413.07a.62.62 0 0 0-.67.14 3.19 3.19 0 0 1-2.12.78.62.62 0 0 0-.61.58.61.61 0 0 0 .58.63 4.87 4.87 0 0 0 2-.42v9.9a.61.61 0 0 0 1.22 0v-11.05a.63.63 0 0 0-.4-.56ZM404.67 425.29a.62.62 0 0 0 .61-.61v-9.9a4.87 4.87 0 0 0 2 .42.61.61 0 0 0 0-1.21 3.2 3.2 0 0 1-2.12-.78.61.61 0 0 0-1 .42v11.06a.6.6 0 0 0 .51.6ZM465.08 435.38a.62.62 0 0 0-.61-.61h-3.93a.61.61 0 0 0-.6.61.6.6 0 0 0 .6.61h3.93a.61.61 0 0 0 .61-.61ZM461 437.71a.61.61 0 1 0 0-1.22h-1.51a.61.61 0 0 0 0 1.22ZM462.48 438.83a.61.61 0 0 0-.61-.61h-3.75a.61.61 0 0 0-.61.61.62.62 0 0 0 .61.61h3.75a.61.61 0 0 0 .61-.61ZM460.1 440.56a.6.6 0 0 0-.61-.6h-2.93a.61.61 0 1 0 0 1.21h2.93a.61.61 0 0 0 .61-.61ZM454.66 441.69a.61.61 0 0 0 0 1.22h1.66a.61.61 0 0 0 0-1.22ZM464.47 431.31h-2.19a.61.61 0 1 0 0 1.22h2.19a.61.61 0 1 0 0-1.22ZM464.47 433.05h-3.05a.61.61 0 1 0 0 1.21h3.05a.61.61 0 1 0 0-1.21ZM464.47 427.85h-1a.61.61 0 1 0 0 1.21h1a.61.61 0 1 0 0-1.21ZM464.47 429.58H463a.61.61 0 0 0-.61.61.61.61 0 0 0 .61.61h1.49a.61.61 0 0 0 .61-.61.62.62 0 0 0-.63-.61Z"/>
      <circle cx="404.65" cy="426.68" r=".61"/>
      <circle cx="407.1" cy="440.58" r=".61"/>
      <circle cx="411.01" cy="442.32" r=".61"/>
      <path d="M404.59 436h3.93a.61.61 0 0 0 .61-.61.62.62 0 0 0-.61-.61h-3.93a.62.62 0 0 0-.61.61.61.61 0 0 0 .61.61ZM409.57 436.52h-1.51a.61.61 0 0 0 0 1.22h1.51a.61.61 0 1 0 0-1.22ZM410.94 438.25h-3.75a.61.61 0 1 0 0 1.21h3.75a.61.61 0 1 0 0-1.21ZM412.5 440h-2.93a.61.61 0 0 0-.61.61.61.61 0 0 0 .61.61h2.93a.61.61 0 0 0 .61-.61.61.61 0 0 0-.61-.61ZM412.13 442.32a.61.61 0 0 0 .61.61h1.67a.61.61 0 0 0 0-1.22h-1.67a.61.61 0 0 0-.61.61ZM404.59 432.55h2.19a.62.62 0 0 0 .61-.61.61.61 0 0 0-.61-.61h-2.19a.61.61 0 0 0-.61.61.62.62 0 0 0 .61.61ZM404.59 434.28h3.05a.61.61 0 1 0 0-1.21h-3.05a.61.61 0 1 0 0 1.21ZM404.59 429.08h1a.61.61 0 1 0 0-1.21h-1a.61.61 0 1 0 0 1.21ZM404.59 430.81h1.49a.61.61 0 0 0 .61-.61.61.61 0 0 0-.61-.61h-1.49a.62.62 0 0 0-.61.61.61.61 0 0 0 .61.61ZM434.53 454.3ZM462.12 398.92a.61.61 0 0 0 .59-.46 2.63 2.63 0 0 0-.28-2.21 3.08 3.08 0 0 0-2-1.19.61.61 0 0 0-.68.47 2.49 2.49 0 0 0 2.37 3.39Zm-.68-2a1.24 1.24 0 0 1 .18.65 1.12 1.12 0 0 1-.51-.35 1.22 1.22 0 0 1-.23-.77 1.44 1.44 0 0 1 .56.49ZM458.18 390.15a3.08 3.08 0 0 0-2-1.19.61.61 0 0 0-.68.47 2.78 2.78 0 0 0 .39 2.46 2.68 2.68 0 0 0 2 .92.61.61 0 0 0 .59-.47 2.57 2.57 0 0 0-.3-2.19Zm-1.33 1a1.25 1.25 0 0 1-.23-.78 1.47 1.47 0 0 1 .56.47 1.21 1.21 0 0 1 .18.66 1.3 1.3 0 0 1-.51-.36ZM408.75 395.06a3.1 3.1 0 0 0-2 1.19 2.67 2.67 0 0 0-.28 2.21.62.62 0 0 0 .59.46 2.69 2.69 0 0 0 2-.91 2.82 2.82 0 0 0 .39-2.47.6.6 0 0 0-.7-.48Zm-.65 2.18a1.1 1.1 0 0 1-.52.35 1.13 1.13 0 0 1 .18-.65 1.44 1.44 0 0 1 .56-.47 1.28 1.28 0 0 1-.22.77ZM412.91 389a3.1 3.1 0 0 0-2 1.19 2.65 2.65 0 0 0-.28 2.2.62.62 0 0 0 .59.47 2.68 2.68 0 0 0 2-.92 2.79 2.79 0 0 0 .39-2.46.61.61 0 0 0-.7-.48Zm-.66 2.18a1.26 1.26 0 0 1-.52.35 1.19 1.19 0 0 1 .18-.66 1.64 1.64 0 0 1 .56-.47 1.25 1.25 0 0 1-.22.74ZM453.67 417.49a.6.6 0 0 0 .6.54h.07a.6.6 0 0 0 .53-.67 17.33 17.33 0 0 0-4.38-9.21.61.61 0 0 0-.87.85 16.18 16.18 0 0 1 4.05 8.49ZM414.82 418h.07a.59.59 0 0 0 .59-.54 16.24 16.24 0 0 1 4-8.48.62.62 0 0 0 0-.86.61.61 0 0 0-.86 0 17.41 17.41 0 0 0-4.38 9.21.6.6 0 0 0 .58.67Z"/>
    </g>
  </g>
  <g data-name="Core Web Vital Logo">
    <path d="M115.4 368.14H67.59a12.09 12.09 0 0 0-10.46 6l-23.9 41.41a12.07 12.07 0 0 0 0 12.08l23.9 41.4a12.08 12.08 0 0 0 10.46 6h47.81a12.07 12.07 0 0 0 10.46-6l23.91-41.4a12.12 12.12 0 0 0 0-12.08l-23.91-41.41a12.08 12.08 0 0 0-10.46-6Z" data-name="Outer Hexagon" fill="#eff0ea" stroke="#f05264" stroke-miterlimit="10"/>
    <path d="M112.25 373.59H70.74a12.08 12.08 0 0 0-10.46 6l-20.75 35.99a12.07 12.07 0 0 0 0 12.08l20.75 35.95a12.09 12.09 0 0 0 10.46 6h41.51a12.08 12.08 0 0 0 10.46-6l20.76-35.95a12.12 12.12 0 0 0 0-12.08l-20.76-35.95a12.07 12.07 0 0 0-10.46-6.04Z" data-name="Inner Hexagon" fill="#eff0ea" stroke="#335a71" stroke-miterlimit="10" stroke-width="3"/>
    <path d="M111.87 404.7H70.5a3.16 3.16 0 0 0-3.16 3.17v33.41a3.16 3.16 0 0 0 3.16 3.17h41.37a3.16 3.16 0 0 0 3.16-3.17v-33.41a3.16 3.16 0 0 0-3.16-3.17Z" fill="#fff" stroke="#212121"/>
    <path d="M67.34 432.52H115m-47.69 6H115m-41.73-6v11.93m6-11.93v11.93m6-11.93v11.93m6-11.93v11.93m6-11.93v11.93m6-11.93v11.93m6-11.93v11.93" fill="none" stroke="#212121"/>
    <path d="M103.11 439.81a1.33 1.33 0 1 0-1.33-1.33 1.32 1.32 0 0 0 1.33 1.33Z" fill="#56c0ee" stroke="#212121"/>
    <path d="M91.19 439.81a1.33 1.33 0 1 0-1.33-1.33 1.32 1.32 0 0 0 1.33 1.33Z" fill="#4b73b8" stroke="#212121"/>
    <path d="M70.5 404.7h41.37a3.47 3.47 0 0 1 2.24.8 2.56 2.56 0 0 1 .92 1.93v3.9H67.34v-3.9a2.44 2.44 0 0 1 .24-1.05 2.64 2.64 0 0 1 .69-.88 3.16 3.16 0 0 1 1-.59 3.58 3.58 0 0 1 1.21-.21Z" fill="#f5f6f6" fill-rule="evenodd" stroke="#212121"/>
    <path d="M74 409a1 1 0 1 0 0-2 1 1 0 0 0 0 2Z" fill="#4b73b8"/>
    <path d="M70.32 409a1 1 0 1 0-1-1 1 1 0 0 0 1 1Z" fill="#4a5ba9"/>
    <path d="M77.61 409a1 1 0 1 0-1-1 1 1 0 0 0 1 1Z" fill="#56c0ee"/>
    <path d="M75.29 421.34h4.87l2.37-4 2.24 9.27 2.88-4.64 2.69 4.64 2.5-9.27 3.56 9.27 3.78-9.27 2.23 4h4.67" fill="none" stroke="#56c0ee" stroke-linecap="round" stroke-linejoin="round" stroke-width="2"/>
    <path d="M91.19 400.73a7.29 7.29 0 1 0-7.29-7.29 7.29 7.29 0 0 0 7.29 7.29Z" fill="#fff" stroke="#212121" stroke-width="1.27"/>
    <path d="M87.21 390.29a.83.83 0 0 1 .83-.82h6.29a.83.83 0 1 1 0 1.65H88a.83.83 0 0 1-.79-.83Zm0 3.15a.83.83 0 0 1 .83-.83h6.29a.83.83 0 1 1 0 1.66H88a.83.83 0 0 1-.79-.83Zm.83 2.32a.83.83 0 1 0 0 1.65h6.29a.83.83 0 1 0 0-1.65Z" fill="#dbdce0" fill-rule="evenodd"/>
    <path d="M87.21 390.29a.83.83 0 0 1 .83-.82h4.47v1.65H88a.83.83 0 0 1-.79-.83Z" fill="#49b869"/>
    <path d="M87.21 393.44a.83.83 0 0 1 .83-.83h3.15v1.66H88a.83.83 0 0 1-.79-.83Z" fill="#faa31a"/>
    <path d="M87.21 396.59a.83.83 0 0 1 .83-.83h1.82v1.65H88a.83.83 0 0 1-.79-.82Z" fill="#f05248"/>
    <path d="M91.19 404.7v-4M115 421.92h5.3" fill="none" stroke="#212121" stroke-dasharray="3.19 3.19" stroke-width="1.27"/>
    <path d="M127.62 429.21a7.29 7.29 0 1 0-7.29-7.29 7.29 7.29 0 0 0 7.29 7.29Z" fill="#fff" stroke="#212121" stroke-width="1.27"/>
    <path d="M127.62 423.25a1.33 1.33 0 1 0-1.33-1.33 1.32 1.32 0 0 0 1.33 1.33Z" fill="#f05248"/>
    <path d="M120.33 421.92h1.82m5.47-7.28v1.82m7.29 5.46h-1.83m-10.62-5.16 1.21 1.22m9.11-1.22-1.21 1.24" fill="none" stroke="#212121"/>
    <path d="m127.62 421.92 5-2.31" fill="none" stroke="#f05248"/>
    <path d="M64.69 449.08a10.6 10.6 0 1 0-10.6-10.6 10.6 10.6 0 0 0 10.6 10.6Z" fill="#fff" stroke="#212121" stroke-width="1.27"/>
    <path d="m58.4 438.33 3.6-2.49 2.26 1.59 4.74-3.08" fill="none" stroke="#212121" stroke-linecap="round" stroke-linejoin="round" stroke-width="1.27"/>
    <path d="M70.33 433.58 69 435.91l-1.32-2.16 2.7-.17Z" fill="#212121" fill-rule="evenodd"/>
    <path d="M64.36 439.81h1.32v4h-1.32Z" fill="#56c0ee"/>
    <path d="M66.35 438.48h1.32v5.3h-1.32Z" fill="#4b73b8"/>
    <path d="M68.33 437.16h1.33v6.62h-1.33Z" fill="#4a5ba9"/>
    <circle cx="61.05" cy="441.8" fill="#dbdce0" r="1.99"/>
    <path d="M61.05 443.78a2 2 0 1 1 0-4Z" fill="#49b869"/>
    <path d="M61.05 439.81a2 2 0 0 1 1.6.82l-1.6 1.17Z" fill="#068643"/>
  </g>
</svg>